<svg width="20" height="17" viewBox="0 0 20 17" fill="none" xmlns="http://www.w3.org/2000/svg">
<path d="M8.0001 16V11H12.0001V16C12.0001 16.55 12.4501 17 13.0001 17H16.0001C16.5501 17 17.0001 16.55 17.0001 16V9H18.7001C19.1601 9 19.3801 8.43 19.0301 8.13L10.6701 0.599971C10.2901 0.259971 9.71012 0.259971 9.33012 0.599971L0.970098 8.13C0.630098 8.43 0.840098 9 1.3001 9H3.0001V16C3.0001 16.55 3.4501 17 4.0001 17H7.0001C7.5501 17 8.0001 16.55 8.0001 16Z" fill="url(#paint0_linear_217_19)"/>
<defs>
<linearGradient id="paint0_linear_217_19" x1="10.0023" y1="0.344971" x2="10.0023" y2="17" gradientUnits="userSpaceOnUse">
<stop stop-color="#811343"/>
<stop offset="0.958333" stop-color="#FFB413"/>
</linearGradient>
</defs>
</svg>
