<svg width="16" height="19" viewBox="0 0 16 19" fill="none" xmlns="http://www.w3.org/2000/svg">
<path d="M3.5 11C3.5 9.8954 4.39543 9 5.5 9H8.5C9.6046 9 10.5 9.8954 10.5 11V13C10.5 14.1046 9.6046 15 8.5 15H5.5C4.39543 15 3.5 14.1046 3.5 13V11Z" fill="url(#paint0_linear_235_95)"/>
<path fill-rule="evenodd" clip-rule="evenodd" d="M5.5 0C4.39543 0 3.5 0.89543 3.5 2V4.49482C3.5 4.93167 3.2113 5.30895 2.81834 5.49981C1.15004 6.31009 0 8.0207 0 10V15C0 17.2091 1.79086 19 4 19H10C12.2091 19 14 17.2091 14 15V10C14 9.4175 13.9004 8.8583 13.7173 8.3385L13.7892 8.297C15.4786 7.32167 16.0574 5.16153 15.082 3.47221C14.1552 1.86682 12.1534 1.25957 10.5 2.05146V2C10.5 0.89543 9.6046 0 8.5 0H5.5ZM5.5 4.25V2H8.5V4.25H5.5ZM5.22663 5.75C4.89473 6.46917 4.30318 7.00205 3.69211 7.29884C2.68638 7.78731 2 8.8154 2 10V15C2 16.1046 2.89543 17 4 17H10C11.1046 17 12 16.1046 12 15V10C12 8.8154 11.3136 7.78731 10.3079 7.29884C9.6968 7.00205 9.1053 6.46917 8.7734 5.75H5.22663ZM10.5 4.3226V4.49482C10.5 4.93167 10.7887 5.30895 11.1817 5.49981C11.7529 5.77726 12.2634 6.16029 12.6878 6.62352L12.7892 6.56495C13.522 6.1419 13.773 5.20495 13.35 4.47221C12.9346 3.75269 12.0213 3.49542 11.2914 3.89229L10.5 4.3226Z" fill="url(#paint1_linear_235_95)"/>
<defs>
<linearGradient id="paint0_linear_235_95" x1="7" y1="9" x2="7" y2="15" gradientUnits="userSpaceOnUse">
<stop stop-color="#811343"/>
<stop offset="1" stop-color="#FFB413"/>
</linearGradient>
<linearGradient id="paint1_linear_235_95" x1="7.77792" y1="0" x2="7.77792" y2="19" gradientUnits="userSpaceOnUse">
<stop stop-color="#811343"/>
<stop offset="1" stop-color="#FFB413"/>
</linearGradient>
</defs>
</svg>
