<svg width="20" height="16" viewBox="0 0 20 16" fill="none" xmlns="http://www.w3.org/2000/svg">
<path fill-rule="evenodd" clip-rule="evenodd" d="M16.86 0.860031L19.65 3.65003C19.84 3.84003 19.84 4.16003 19.64 4.35003L16.85 7.14C16.54 7.46 16 7.24 16 6.79V5.00003H2C1.45 5.00003 1 4.55003 1 4.00003C1 3.45003 1.45 3.00003 2 3.00003H16V1.21003C16 0.76003 16.54 0.540031 16.86 0.860031ZM3.14001 15.14L0.350014 12.35C0.160014 12.16 0.160014 11.84 0.360014 11.65L3.15001 8.86C3.46001 8.54 4.00001 8.76 4.00001 9.21V11H18C18.55 11 19 11.45 19 12C19 12.55 18.55 13 18 13H4.00001V14.79C4.00001 15.24 3.46001 15.46 3.14001 15.14Z" fill="url(#paint0_linear_218_21)"/>
<defs>
<linearGradient id="paint0_linear_218_21" x1="10" y1="0.708496" x2="10" y2="15.2915" gradientUnits="userSpaceOnUse">
<stop stop-color="#811343"/>
<stop offset="1" stop-color="#FFB413"/>
</linearGradient>
</defs>
</svg>
