<svg width="20" height="25" viewBox="0 0 20 25" fill="none" xmlns="http://www.w3.org/2000/svg">
<path d="M14.0633 -2.39098e-07L14.8445 -2.04948e-07C15.4918 -1.76657e-07 16.0164 0.524658 16.0164 1.17187L16.0164 18.75L18.3602 18.75C19.4035 18.75 19.9247 20.0146 19.1888 20.7505L15.2826 24.6568C14.8249 25.1144 14.0829 25.1144 13.6253 24.6568L9.71904 20.7505C8.98604 20.0174 9.5 18.75 10.5477 18.75L12.8914 18.75L12.8914 1.17187C12.8914 0.524658 13.4161 -2.67388e-07 14.0633 -2.39098e-07ZM6.64141 23.8281L6.64141 6.25L8.98516 6.25C10.0259 6.25 10.5516 4.98721 9.81382 4.24946L5.90757 0.343212C5.44991 -0.114405 4.70791 -0.114405 4.2503 0.343212L0.344045 4.24946C-0.389694 4.98325 0.125931 6.25 1.17266 6.25L3.51641 6.25L3.51641 23.8281C3.51641 24.4753 4.04107 25 4.68828 25L5.46953 25C6.11675 25 6.64141 24.4753 6.64141 23.8281Z" fill="url(#paint0_linear_142_38)"/>
<defs>
<linearGradient id="paint0_linear_142_38" x1="19.5332" y1="12.5" x2="-0.000120709" y2="12.5" gradientUnits="userSpaceOnUse">
<stop stop-color="#811343"/>
<stop offset="1" stop-color="#FFB413"/>
</linearGradient>
</defs>
</svg>
