<svg width="24" height="23" viewBox="0 0 24 23" fill="none" xmlns="http://www.w3.org/2000/svg">
<path d="M13.4496 5.74627V10.9445L17.9545 13.5435C18.1748 13.6706 18.3356 13.88 18.4015 14.1256C18.4673 14.3712 18.4328 14.6329 18.3056 14.8531C18.1784 15.0732 17.9689 15.2339 17.7232 15.2997C17.4774 15.3655 17.2156 15.3311 16.9952 15.204L12.0107 12.3281C12.003 12.3237 11.9962 12.3185 11.9886 12.3139C11.9723 12.304 11.9564 12.2937 11.9407 12.2828C11.9282 12.2742 11.9163 12.265 11.9045 12.2559C11.8922 12.2465 11.8802 12.2369 11.8684 12.227C11.8551 12.2156 11.8422 12.2039 11.8296 12.1918C11.8069 12.1702 11.7852 12.1475 11.7647 12.1237C11.7563 12.1141 11.7482 12.1044 11.7402 12.0946C11.7107 12.0574 11.6839 12.0181 11.6602 11.9769C11.6453 11.951 11.6316 11.9245 11.6191 11.8973C11.6118 11.8814 11.6048 11.8653 11.5983 11.8491C11.5937 11.8371 11.5894 11.825 11.5852 11.8129C11.5637 11.7522 11.5488 11.6894 11.5406 11.6256C11.5386 11.611 11.5366 11.5963 11.5353 11.5815C11.5336 11.5623 11.5329 11.5431 11.5324 11.5237C11.5322 11.5151 11.5311 11.5067 11.5311 11.498V5.74627C11.5311 5.49203 11.6321 5.24821 11.812 5.06843C11.9919 4.88866 12.2359 4.78766 12.4903 4.78766C12.7447 4.78766 12.9887 4.88866 13.1686 5.06843C13.3485 5.24821 13.4496 5.49203 13.4496 5.74627ZM20.6299 3.36388C18.4694 1.20976 15.5422 0 12.4903 0C9.43848 0 6.51124 1.20976 4.35082 3.36388L3.35739 4.35652L1.63757 2.63797C1.50341 2.5039 1.33249 2.41259 1.14641 2.3756C0.960324 2.33861 0.767444 2.35759 0.592159 2.43015C0.416874 2.50271 0.267056 2.62558 0.161652 2.78323C0.0562486 2.94088 -6.91281e-06 3.12623 6.37136e-10 3.31583V8.1089C6.37136e-10 8.36314 0.101064 8.60697 0.280959 8.78674C0.460854 8.96652 0.704844 9.06751 0.959255 9.06751H5.75553C5.94526 9.06752 6.13073 9.0113 6.28848 8.90597C6.44624 8.80064 6.56919 8.65092 6.6418 8.47575C6.7144 8.30058 6.7334 8.10783 6.69638 7.92187C6.65937 7.73592 6.568 7.5651 6.43384 7.43104L4.71402 5.71224L5.70745 4.71948C7.04899 3.37883 8.75821 2.46584 10.619 2.09595C12.4798 1.72607 14.4085 1.91591 16.1613 2.64146C17.9141 3.36701 19.4123 4.59569 20.4663 6.17212C21.5204 7.74856 22.083 9.60194 22.083 11.4979C22.083 13.3939 21.5204 15.2472 20.4663 16.8237C19.4123 18.4001 17.9141 19.6288 16.1613 20.3543C14.4085 21.0799 12.4798 21.2697 10.619 20.8998C8.75821 20.53 7.04899 19.617 5.70745 18.2763C5.52753 18.0965 5.28352 17.9956 5.02909 17.9956C4.77466 17.9956 4.53066 18.0966 4.35076 18.2764C4.17086 18.4562 4.0698 18.7 4.06981 18.9543C4.06982 19.2085 4.1709 19.4524 4.35082 19.6322C6.5097 21.7888 9.43739 23.0003 12.49 23C15.5426 22.9997 18.47 21.7878 20.6285 19.6307C22.787 17.4736 23.9998 14.5481 24 11.4976C24.0002 8.44703 22.788 5.5213 20.6299 3.36388Z" fill="url(#paint0_linear_142_22)"/>
<defs>
<linearGradient id="paint0_linear_142_22" x1="12" y1="0" x2="12" y2="23" gradientUnits="userSpaceOnUse">
<stop stop-color="#811343"/>
<stop offset="1" stop-color="#FFB413"/>
</linearGradient>
</defs>
</svg>
