<svg width="26" height="28" viewBox="0 0 26 28" fill="none" xmlns="http://www.w3.org/2000/svg">
<path fill-rule="evenodd" clip-rule="evenodd" d="M16.9666 3.16329C15.676 -1.05443 9.70517 -1.05443 8.41453 3.16329C8.0348 4.40423 6.76006 5.1402 5.49551 4.84859C1.19754 3.85745 -1.78788 9.02835 1.21946 12.2549C2.10428 13.2043 2.10428 14.6762 1.21946 15.6255C-1.78788 18.8521 1.19754 24.023 5.49551 23.0319C6.76006 22.7403 8.0348 23.4762 8.41453 24.7172C9.70517 28.9349 15.676 28.9349 16.9666 24.7172C17.3464 23.4762 18.6211 22.7403 19.8857 23.0319C24.1836 24.023 27.1691 18.8521 24.1617 15.6255C23.2769 14.6762 23.2769 13.2043 24.1617 12.2549C27.1691 9.02835 24.1836 3.85745 19.8857 4.84859C18.6211 5.1402 17.3464 4.40423 16.9666 3.16329ZM12.6906 10.9403C11.0337 10.9403 9.69059 12.2834 9.69059 13.9403C9.69059 15.5971 11.0337 16.9403 12.6906 16.9403C14.3474 16.9403 15.6906 15.5971 15.6906 13.9403C15.6906 12.2834 14.3474 10.9403 12.6906 10.9403ZM7.69059 13.9403C7.69059 11.1788 9.92917 8.94027 12.6906 8.94027C15.452 8.94027 17.6906 11.1788 17.6906 13.9403C17.6906 16.7017 15.452 18.9403 12.6906 18.9403C9.92917 18.9403 7.69059 16.7017 7.69059 13.9403Z" fill="url(#paint0_linear_142_23)"/>
<defs>
<linearGradient id="paint0_linear_142_23" x1="12.6906" y1="0" x2="12.6906" y2="27.8805" gradientUnits="userSpaceOnUse">
<stop stop-color="#811343"/>
<stop offset="1" stop-color="#FFB413"/>
</linearGradient>
</defs>
</svg>
